PathFileType	4	(X/Y/Z)	C:/Users/opensim2020/Desktop/walking_exp_matlab/subject03_walking07_straight_03.trc																																																																																																																																								
DataRate	CameraRate	NumFrames	NumMarkers	Units	OrigDataRate	OrigDataStartFrame	OrigNumFrames																																																																																																																																				
100	100	6	46	mm	100	2203	306																																																																																																																																				
Frame#	Time	LFHD			RFHD			LBHD			RBHD			C7			T10			CLAV			STRN			RBAK			LSHO			LUPA			LELB			LFRM			LWRA			LWRB			LFIN			RSHO			RUPA			RELB			RFRM			RWRA			RWRB			RFIN			LASI			RASI			LPSI			RPSI			LTHI			LKNE			LTIB			LANK			LHEE			LTOE			RTHI			RKNE			RTIB			RANK			RHEE			RTOE			*39			*40			*41			*42			*43			*44			*45		
		X1	Y1	Z1	X2	Y2	Z2	X3	Y3	Z3	X4	Y4	Z4	X5	Y5	Z5	X6	Y6	Z6	X7	Y7	Z7	X8	Y8	Z8	X9	Y9	Z9	X10	Y10	Z10	X11	Y11	Z11	X12	Y12	Z12	X13	Y13	Z13	X14	Y14	Z14	X15	Y15	Z15	X16	Y16	Z16	X17	Y17	Z17	X18	Y18	Z18	X19	Y19	Z19	X20	Y20	Z20	X21	Y21	Z21	X22	Y22	Z22	X23	Y23	Z23	X24	Y24	Z24	X25	Y25	Z25	X26	Y26	Z26	X27	Y27	Z27	X28	Y28	Z28	X29	Y29	Z29	X30	Y30	Z30	X31	Y31	Z31	X32	Y32	Z32	X33	Y33	Z33	X34	Y34	Z34	X35	Y35	Z35	X36	Y36	Z36	X37	Y37	Z37	X38	Y38	Z38	X39	Y39	Z39	X40	Y40	Z40	X41	Y41	Z41	X42	Y42	Z42	X43	Y43	Z43	X44	Y44	Z44	X45	Y45	Z45	X46	Y46	Z46
																																																																																																																																											
39	0.38	-945.97638	1628.21277	1348.48071	-947.90155	1629.32568	1481.24426	-1064.88892	1563.55017	1350.27991	-1063.00647	1565.38831	1481.27124	-1077.90576	1419.45361	1399.75195	-1132.69446	1112.22278	1406.8783	-956.67523	1340.28845	1406.5061	-922.40546	1172.37415	1405.90479	-1139.37927	1252.85986	1500.53101	-990.0061	1376.7793	1249.51489	-1004.52496	1178.71313	1179.61182	-1007.47357	1055.43201	1171.34839	-994.3338	925.32172	1173.08691	-994.61298	804.61798	1203.54236	-1007.40021	813.73431	1149.14795	-1012.47595	727.41742	1160.96704	-1005.05566	1369.88806	1563.39246	-1010.06494	1151.73608	1644.33862	-996.27075	1040.18298	1661.45093	-976.35889	904.93622	1668.35754	-941.73846	810.78107	1635.70813	-974.36346	804.59821	1678.66174	-948.67609	733.93781	1669.6521	-970.06329	945.13684	1299.09998	-982.62555	933.21375	1533.11316	-1133.45361	972.37592	1339.65527	-1138.76917	972.27228	1489.18408	-1005.79688	647.92279	1248.11975	-974.23083	473.30408	1288.19141	-993.22595	279.32925	1282.53308	-969.20728	69.03549	1318.64795	-1005.88922	34.9608	1356.55127	-814.98315	36.23008	1342.79443	-1056.43542	635.97571	1583.46277	-1047.54199	455.08493	1566.56982	-1196.01062	332.99652	1573.4104	-1361.19104	194.85989	1533.15649	-1408.34595	209.62201	1477.97607	-1319.59387	56.29635	1517.70276	-1038.40466	1674.1261	1400.76294	NaN	NaN	NaN	NaN	NaN	NaN	NaN	NaN	NaN	NaN	NaN	NaN	NaN	NaN	NaN	NaN	NaN	NaN
40	0.39	-937.69464	1628.87146	1347.13086	-939.69812	1630.11108	1479.91211	-1056.72778	1564.17517	1348.91162	-1054.82019	1566.17688	1479.96436	-1069.65625	1420.15356	1398.26819	-1124.46533	1112.77991	1405.4856	-948.70685	1340.95313	1405.61108	-914.40521	1172.97595	1405.10229	-1131.52734	1253.27319	1498.77234	-981.31775	1377.03979	1248.48657	-993.25909	1178.96863	1179.1554	-994.64197	1055.95313	1168.94043	-979.02124	925.91644	1170.65503	-977.10181	805.24286	1200.73645	-990.19629	814.32861	1146.4624	-994.18488	727.9574	1157.85376	-997.55109	1370.50708	1562.31604	-1002.89722	1152.46985	1643.36401	-989.15503	1040.89197	1660.56702	-969.29291	905.70062	1667.8374	-934.5636	811.35138	1635.56494	-967.49176	805.33319	1678.37354	-941.97083	734.67596	1669.47424	-961.75562	945.51312	1297.80347	-974.18304	933.66809	1532.19421	-1125.51196	972.82404	1338.26318	-1130.79529	971.95459	1487.70789	-999.93335	648.34387	1246.32617	-970.18939	473.48059	1287.12891	-990.88702	279.59082	1281.94507	-969.18414	69.08666	1318.63171	-1005.91998	34.89941	1356.54468	-814.95789	36.13105	1342.83069	-1043.24976	635.89404	1581.53369	-1029.37939	455.33313	1565.05603	-1178.52905	335.16684	1570.97363	-1345.24512	199.17058	1530.79272	-1392.547	213.21301	1475.35986	-1302.677	60.97255	1517.4729	-1030.23779	1674.82739	1399.3208	NaN	NaN	NaN	NaN	NaN	NaN	NaN	NaN	NaN	NaN	NaN	NaN	NaN	NaN	NaN	NaN	NaN	NaN
41	0.4	-929.5033	1629.45935	1345.85193	-931.48944	1630.90466	1478.62634	-1048.39111	1564.82568	1347.68616	-1046.6228	1566.94226	1478.6936	-1061.55615	1420.94641	1396.93347	-1116.30664	1113.35437	1404.13672	-940.87103	1341.599	1404.75415	-906.56683	1173.52734	1404.29016	-1123.84253	1253.73096	1497.06653	-972.82922	1377.20435	1247.55603	-981.93817	1179.35767	1177.71826	-980.30603	1056.33911	1167.62805	-963.44647	926.66809	1168.41113	-958.76569	806.37604	1198.42285	-972.79553	814.95618	1143.83923	-975.1944	728.50995	1155.01392	-990.17987	1371.104	1561.39966	-995.65106	1153.00134	1642.38086	-982.6391	1041.50659	1660.3053	-962.28412	906.26666	1667.21729	-927.38812	811.85449	1635.39819	-960.61255	805.92883	1678.11133	-935.05573	735.16986	1669.28284	-953.7782	945.92487	1296.3584	-966.42914	934.09546	1531.02893	-1117.6377	973.20404	1336.94238	-1122.88037	971.74011	1486.32007	-994.18512	648.79565	1245.09424	-966.21759	473.75616	1286.23853	-988.74878	279.88831	1281.47571	-969.18573	69.17368	1318.63623	-1005.9563	34.88013	1356.5498	-814.91327	36.02077	1342.79346	-1030.1731	636.36694	1579.6593	-1011.45123	456.23038	1563.56873	-1160.81177	337.33591	1568.46509	-1328.35315	202.43004	1528.4458	-1375.96765	215.80438	1472.71313	-1284.20593	64.61343	1516.53064	-1021.99731	1675.53442	1397.94702	NaN	NaN	NaN	NaN	NaN	NaN	NaN	NaN	NaN	NaN	NaN	NaN	NaN	NaN	NaN	NaN	NaN	NaN
42	0.41	-921.28857	1630.09302	1344.69299	-923.38763	1631.67822	1477.51282	-1040.18262	1565.46143	1346.54089	-1038.52344	1567.73584	1477.5459	-1053.45703	1421.71777	1395.77112	-1108.31384	1113.95288	1402.7998	-933.15131	1342.18262	1403.88379	-898.755	1174.02466	1403.49939	-1116.29321	1254.19385	1495.50659	-964.56946	1377.28003	1246.65735	-970.95142	1179.60962	1176.37842	-967.29663	1056.6814	1165.55115	-947.83051	927.35724	1166.21423	-941.53503	806.82288	1195.51746	-955.12378	815.56335	1141.42615	-955.62372	729.1933	1152.17468	-982.99365	1371.48962	1560.52551	-988.71594	1153.36279	1641.63574	-975.82446	1041.92737	1659.90002	-955.41229	906.66351	1666.71838	-920.35663	812.26678	1635.11572	-953.79443	806.34222	1677.64587	-928.12653	735.46521	1668.90576	-945.789	946.39099	1294.52942	-957.91571	934.37939	1530.09839	-1110.00854	973.73279	1335.77856	-1115.00928	971.72961	1485.05859	-988.27026	649.25323	1244.31982	-962.0575	474.18036	1285.54285	-986.89276	280.10721	1281.09521	-969.18988	69.1661	1318.65833	-1006.0744	34.95475	1356.56848	-814.94788	35.97686	1342.73779	-1016.99438	637.073	1577.75415	-993.70453	457.52695	1561.98096	-1142.83704	339.15555	1566.14319	-1310.68591	204.71989	1526.01599	-1358.28955	216.92911	1469.80103	-1264.85413	67.6188	1515.50867	-1013.83063	1676.26917	1396.67578	NaN	NaN	NaN	NaN	NaN	NaN	NaN	NaN	NaN	NaN	NaN	NaN	NaN	NaN	NaN	NaN	NaN	NaN
43	0.42	-913.05762	1630.77747	1343.62329	-915.25793	1632.39355	1476.4657	-1032.05273	1566.13354	1345.49719	-1030.51367	1568.51953	1476.62695	-1045.58154	1422.51306	1394.73987	-1100.33472	1114.55188	1401.50671	-925.46741	1342.70142	1403.09485	-891.01709	1174.55823	1402.68433	-1108.78296	1254.6239	1493.94287	-956.4447	1377.33508	1245.82458	-959.86786	1179.93274	1175.29016	-953.80774	1057.08557	1163.86523	-932.0036	928.32159	1164.36731	-923.46777	807.87177	1193.00476	-937.30475	816.39294	1139.15186	-935.54193	730.10779	1149.58179	-975.80933	1371.83252	1559.74109	-981.91327	1153.78271	1640.91077	-968.89587	1042.21985	1659.27869	-948.60095	906.95172	1666.23096	-913.34015	812.5697	1634.82263	-947.05072	806.67242	1677.22925	-921.23273	736.06677	1668.78345	-938.35992	946.87854	1292.90454	-950.18372	935.16272	1528.71008	-1102.38879	974.32019	1334.77026	-1107.00696	971.99103	1483.9054	-982.47144	649.87128	1244.00049	-958.07721	474.22617	1284.89648	-985.18542	280.38239	1280.88623	-969.16058	69.29241	1318.7948	-1006.1535	34.69692	1356.56238	-814.9588	35.93675	1342.72485	-1003.68677	637.93506	1576.04187	-976.20325	459.19986	1560.51563	-1124.58997	340.58041	1564.10205	-1292.28882	205.85747	1523.54443	-1340.42554	216.80632	1467.0813	-1244.39209	69.65968	1514.00159	-1005.68658	1676.9718	1395.5304	NaN	NaN	NaN	NaN	NaN	NaN	NaN	NaN	NaN	NaN	NaN	NaN	NaN	NaN	NaN	NaN	NaN	NaN
44	0.43	-904.83765	1631.32996	1342.6908	-907.24139	1633.10547	1475.64282	-1024.65405	1566.83496	1344.52917	-1022.51141	1569.26428	1475.69543	-1037.71582	1423.10815	1393.78967	-1092.44165	1115.20898	1400.31177	-917.79462	1343.27209	1402.45764	-883.28815	1175.08411	1401.77405	-1101.28125	1255.02161	1492.54456	-948.41895	1377.47034	1245.05249	-949.13086	1180.19263	1174.02991	-940.77795	1057.89307	1162.21875	-916.11395	929.44421	1162.6532	-905.62592	809.28162	1191.14905	-919.43439	817.49506	1137.11316	-915.01575	731.08008	1147.56262	-968.31281	1372.11035	1559.03809	-975.00891	1154.05823	1640.05261	-962.78455	1042.61499	1658.65808	-941.86731	907.25793	1665.67957	-906.41309	812.89624	1634.52234	-940.36328	807.03497	1676.77429	-914.39624	736.59351	1668.55042	-931.07373	947.44214	1291.26721	-941.48145	936.25555	1527.60608	-1094.81738	974.96057	1333.89893	-1099.86353	972.98889	1482.82422	-976.60889	650.30688	1243.81885	-954.05493	474.36749	1284.46875	-983.34674	280.60284	1280.73462	-968.80035	69.41956	1319.15747	-1006.15833	34.66559	1356.72571	-814.90906	35.86444	1342.67249	-990.18945	638.8313	1574.40662	-958.8656	460.94366	1558.91394	-1105.92761	341.48026	1562.05115	-1273.10852	205.98468	1521.09631	-1321.8634	216.09119	1464.74634	-1222.52087	70.99816	1512.0293	-997.47144	1677.65015	1394.50513	NaN	NaN	NaN	NaN	NaN	NaN	NaN	NaN	NaN	NaN	NaN	NaN	NaN	NaN	NaN	NaN	NaN	NaN
